<!-- Generator: Adobe Illustrator 23.0.0, SVG Export Plug-In  -->
<svg version="1.1" xmlns="http://www.w3.org/2000/svg" xmlns:xlink="http://www.w3.org/1999/xlink" x="0px" y="0px"
	 width="493.53px" height="609.19px" viewBox="0 0 493.53 609.19" enable-background="new 0 0 493.53 609.19" xml:space="preserve">
<defs>
</defs>
<path fill="#FDFDFD" d="M376.79,597.88c9.62-13.29,7.69-39.5-3.5-47.62c-13.19-9.57-30.86-6.69-40.15,6.54
	c-8.65,12.32-4.71,37.99,7.14,46.47C353.57,612.78,367.49,610.73,376.79,597.88z M11.14,567.17c9.75,7.34,30.49,4.61,38.13-5.02
	c8.62-10.88,5.67-42.16-4.7-49.82c-10.55-7.79-32.2-4.16-40.07,6.71C-3.86,530.59,0.04,558.81,11.14,567.17z"/>
<path fill="#3491CF" d="M231.28,0.61c-33.47,0.21-68.6,10.9-97.9,25.64c-35.13,17.69-64.79,42.99-87.19,75.08
	C12.93,148.96-1.24,202.46,0.84,260.95c1.7,47.94,0.2,95.99,0.21,143.98c0,19.51-0.36,39.06,0.58,58.53
	c0.7,14.41,12.66,23.47,27.65,23.61c13.27,0.12,23.38-9.48,24.83-24.31c1.37-13.99,8.2-23.82,20.85-28.47
	c11.27-4.14,20.74,0.97,28.92,9.26c6.9,6.99,5.58,15.91,6.45,24.15c0.84,7.9-0.11,15.97-0.01,23.97
	c0.24,19.83,14.64,26.97,28.14,27.32c14.29,0.37,25.42-11.79,25.92-27.37c0.6-18.58,12.57-31.72,28.13-30.89
	c16.98,0.91,27.22,13.94,26.87,33.41c-0.25,13.8-2.3,28.2,11.76,37.89c8.21,5.67,16.69,6.88,25.48,2.95
	c9.3-4.15,16.34-10.52,16.51-21.97c0.13-8.48,0.26-16.93,0.18-25.41c-0.11-11.88,3.3-23.55,14.92-29.55
	c10.66-5.51,21.79-5.67,31.34,3.1c8.71,7.99,9.88,18.66,9.16,29.59c-0.87,13.28,3.06,24.27,15.54,30
	c18.53,8.52,39.21-5.77,38.99-26.21c-0.13-11.55-0.57-23.15,0.28-34.65c1.13-15.26,12.16-24.88,26.56-24.45
	c16.07,0.47,26.01,9.59,27.46,25.21c2.29,24.52,14.51,35.6,34.45,31.22c12.81-2.82,20.91-14.82,20.92-30.57
	c0.06-74.2,1.41-148.42-0.14-222.58c-1.12-53.58-18.98-101.9-52.3-144.99c-32.67-42.25-74.72-69.1-124.72-85.03
	C299.64,3.56,265.99,0,265.99,0C252.83,0,244.06,0.24,231.28,0.61z"/>
<path fill="#3593D0" d="M340.28,603.27c13.29,9.52,27.22,7.46,36.51-5.39c9.62-13.29,7.69-39.5-3.5-47.62
	c-13.19-9.57-30.86-6.69-40.15,6.54C324.48,569.12,328.43,594.79,340.28,603.27z"/>
<path fill="#3692CF" d="M4.5,519.05c-8.36,11.54-4.46,39.76,6.64,48.12c9.75,7.34,30.49,4.61,38.13-5.02
	c8.62-10.88,5.67-42.16-4.7-49.82C34.02,504.55,12.37,508.18,4.5,519.05z"/>
<path fill="#030405" d="M357.14,246.38c-9.04,12.91-5.38,32.98,7.56,41.46c12.05,7.9,30.48,3.9,39.08-8.48
	c7.58-10.92,2.76-31.02-9.38-39.08C382.99,232.72,364.6,235.73,357.14,246.38z"/>
<path fill="#030405" d="M195.74,282.7c12.59,9.23,28.99,7.23,38.18-4.66c8.61-11.14,6.06-32.48-4.8-40.05
	c-12.35-8.61-31.24-5.83-39.43,5.8C180.16,257.34,182.6,273.06,195.74,282.7z"/>
<path fill="#3A9CD7" d="M193.99,330.22c8.41-12.03,5.58-24.47-7.62-33.48c-10.1-6.89-26.5-3.59-33.36,6.71
	c-6.45,9.69-3.26,27.57,6.1,34.09C171.51,346.18,184.79,343.4,193.99,330.22z"/>
<path fill="#3A9CD7" d="M430.75,297.86c-11.55-8.37-26.35-4.35-35.78,9.73c-6.12,9.13-1.76,22.4,10.27,31.3
	c9.05,6.69,24.27,4,31.57-5.58C445.54,321.86,442.94,306.69,430.75,297.86z"/>
<path fill="#040C0C" d="M276.07,320.49c20.21,13.68,47.43,5.71,51.2-12.59c1.07-5.17,3.2-12.07-5.36-14.07
	c-8.98-2.09-6.91,6.51-7.19,9.56c-0.73,7.97-6.34,10.12-11.7,10.52c-6.67,0.49-14.69,1.65-19.06-6.06
	c-1.75-3.09-2.64-6.66-4.23-9.85c-1.5-3.01-4.4-5.38-7.52-4.48c-3.54,1.03-6,4.42-4.89,8.42
	C269.48,309.64,272.26,317.15,276.07,320.49z"/>
<g>
	<path fill="#1B69B1" d="M337.87,114.16c2.39-7.84,1.84-15.55-0.95-23.18c-16.93-5.12-35.54-7.04-46.64-23.52
		c13.95,9.81,30.08,13.18,46.33,16.16c-0.56-8,0.07-16.25-4.91-23.31c-9.19-4.87-20.57-6.13-29.05-17.32
		c11.15,2.2,18.5,10.37,28.26,6.29l0.16-0.25c-0.31-0.33-0.77-0.6-0.91-0.98c-2.83-7.72-4.33-17.17-14.44-18.36
		c-4.14-0.49-8.55-0.26-12,2.33c-2.86,2.15-4.66,5.48-6.49,8.48c-4.52,7.38-7.82,15.25-11.14,23.22
		c-3.92,9.39-7.63,18.88-10.88,28.52c-1.67,4.96-3.23,9.97-4.46,15.06c-2.15,8.97-0.26,13.62,6.43,17.72
		c18.72,11.47,38.48,10.08,58.51,4.31c4.41-1.27,6.15-3.66,2.7-7.76c-19.06-8.6-43.81-5.38-58.83-29.31
		C298.89,105.71,318.34,110.03,337.87,114.16z"/>
	<path fill="#3E81C3" d="M337.87,114.16c-19.52-4.14-38.98-8.46-58.31-21.9c15.03,23.93,39.78,20.72,58.83,29.31
		C338.22,119.1,338.04,116.63,337.87,114.16z"/>
	<path fill="#3E80C2" d="M336.61,83.63c-16.26-2.99-32.38-6.35-46.33-16.16c11.11,16.48,29.71,18.4,46.64,23.52
		C339.09,88.44,339.08,85.99,336.61,83.63z"/>
	<path fill="#3E81C3" d="M330.91,49.29c-9.76,4.08-17.11-4.09-28.26-6.29c8.48,11.2,19.86,12.46,29.05,17.32
		C334.98,56.39,332.49,52.87,330.91,49.29z"/>
</g>
</svg>